<svg width="27" height="27" viewBox="0 0 27 27" fill="none" xmlns="http://www.w3.org/2000/svg">
<g clipPath="url(#clip0_220_3736)">
<path d="M13.5 0C6.04415 0 0 6.04415 0 13.5C0 20.9558 6.04415 27 13.5 27C20.9558 27 27 20.9558 27 13.5C26.9919 6.04747 20.9525 0.00806836 13.5 0ZM18 16.4104C18.4571 16.8311 18.4867 17.5428 18.0659 18C17.6451 18.4571 16.9334 18.4867 16.4763 18.0659C16.4534 18.0449 16.4315 18.0229 16.4104 18L13.5 15.0907L10.5907 18C10.1438 18.4316 9.43165 18.4192 9.00002 17.9723C8.57899 17.5363 8.57899 16.8452 9.00002 16.4093L11.9093 13.5L9.00002 10.5907C8.56839 10.1438 8.58078 9.43165 9.0277 9.00002C9.46366 8.57899 10.1548 8.57899 10.5907 9.00002L13.5 11.9093L16.4104 9.00002C16.8311 8.54286 17.5428 8.51333 18 8.9341C18.4571 9.35487 18.4867 10.0666 18.0659 10.5237C18.0449 10.5466 18.0229 10.5685 18 10.5896L15.0907 13.5L18 16.4104Z" fill="white"/>
</g>
<defs>
<clipPath id="clip0_220_3736">
<rect width="27" height="27" fill="white"/>
</clipPath>
</defs>
</svg>
