<svg width="30" height="30" viewBox="0 0 30 30" fill="none" xmlns="http://www.w3.org/2000/svg">
<g clipPath="url(#clip0_220_3710)">
<path d="M15.4545 28.4093C8.29975 28.4093 2.5 22.6096 2.5 15.4548C2.5 8.29996 8.29975 2.50021 15.4545 2.50021C22.6093 2.50021 28.4091 8.29996 28.4091 15.4548C28.4091 22.6096 22.6093 28.4093 15.4545 28.4093ZM13.4558 19.9294C13.8464 20.32 14.4796 20.3199 14.8701 19.9294L22.6148 12.1835C23.0053 11.793 23.0053 11.1599 22.6148 10.7694L22.1972 10.3518C21.8067 9.96127 21.1735 9.96129 20.783 10.3519L14.163 16.973L11.2052 14.0153C10.8147 13.6248 10.1816 13.6248 9.79103 14.0153L9.37347 14.4329C8.98295 14.8234 8.98295 15.4565 9.37347 15.8471L13.4558 19.9294Z" fill="white"/>
</g>
<defs>
<clipPath id="clip0_220_3710">
<rect width="30" height="30" fill="white"/>
</clipPath>
</defs>
</svg>
