<svg width="27" height="27" viewBox="0 0 27 27" fill="none" xmlns="http://www.w3.org/2000/svg">
<path fillRule="evenodd" clipRule="evenodd" d="M13.5 27C20.9558 27 27 20.9558 27 13.5C27 6.04416 20.9558 0 13.5 0C6.04416 0 0 6.04416 0 13.5C0 20.9558 6.04416 27 13.5 27ZM14.3294 9.02236C14.342 8.46146 13.8907 8 13.3297 8H13.1753C12.6146 8 12.1634 8.46104 12.1756 9.02168L12.3154 15.4677C12.3264 15.9762 12.7417 16.3826 13.2503 16.3826C13.7586 16.3826 14.1739 15.9766 14.1852 15.4684L14.3294 9.02236ZM12.3636 19.629C12.6098 19.8763 12.9053 20 13.25 20C13.4773 20 13.6837 19.944 13.8693 19.8319C14.0587 19.7159 14.2102 19.5614 14.3239 19.3681C14.4413 19.1749 14.5 18.9604 14.5 18.7246C14.5 18.3768 14.375 18.0792 14.125 17.8319C13.8788 17.5845 13.5871 17.4609 13.25 17.4609C12.9053 17.4609 12.6098 17.5845 12.3636 17.8319C12.1212 18.0792 12 18.3768 12 18.7246C12 19.0802 12.1212 19.3816 12.3636 19.629Z" fill="white"/>
</svg>
