<svg width="24" height="25" viewBox="0 0 24 25" fill="none" xmlns="http://www.w3.org/2000/svg">
<path fill-rule="evenodd" clip-rule="evenodd" d="M4 11.5C4 7.63401 7.13401 4.5 11 4.5C14.866 4.5 18 7.63401 18 11.5C18 13.3859 17.2542 15.0977 16.0414 16.3564C16.0072 16.3827 15.9742 16.4115 15.9429 16.4429C15.9115 16.4742 15.8827 16.5072 15.8564 16.5414C14.5977 17.7542 12.8859 18.5 11 18.5C7.13401 18.5 4 15.366 4 11.5ZM16.6177 18.5319L15.9429 17.8571C15.5837 17.4979 15.5549 16.9335 15.8564 16.5414C15.9192 16.4809 15.9809 16.4192 16.0414 16.3564C16.4335 16.0549 16.9979 16.0837 17.3571 16.4429L18.0319 17.1177C17.6143 17.6397 17.1397 18.1143 16.6177 18.5319ZM16.6177 18.5319L20.2929 22.2071C20.6834 22.5976 21.3166 22.5976 21.7071 22.2071C22.0976 21.8166 22.0976 21.1834 21.7071 20.7929L18.0319 17.1177C19.2635 15.578 20 13.625 20 11.5C20 6.52944 15.9706 2.5 11 2.5C6.02944 2.5 2 6.52944 2 11.5C2 16.4706 6.02944 20.5 11 20.5C13.125 20.5 15.078 19.7635 16.6177 18.5319Z" fill="#8593A3"/>
<path d="M15.9429 17.8571L16.6177 18.5319C17.1397 18.1143 17.6143 17.6397 18.0319 17.1177L17.3571 16.4429C16.9979 16.0837 16.4335 16.0549 16.0414 16.3564C15.9809 16.4192 15.9192 16.4809 15.8564 16.5414C15.5549 16.9335 15.5837 17.4979 15.9429 17.8571Z" fill="#8593A3"/>
</svg>
